<svg width="32" height="32" viewBox="0 0 32 32" fill="none" xmlns="http://www.w3.org/2000/svg">
<path d="M17.9645 8.64849C21.7423 8.64849 23.3537 10.2597 23.3537 14.0373H26.9465C26.9465 8.24433 23.7579 5.05595 17.9645 5.05595V8.64849ZM24.1118 18.4256C23.7666 18.1119 23.313 17.9446 22.8468 17.959C22.3805 17.9734 21.9381 18.1684 21.613 18.5028L17.3142 22.9234C16.2795 22.7259 14.1992 22.0774 12.0579 19.9416C9.91663 17.7987 9.26813 15.7132 9.07592 14.6858L13.4933 10.3855C13.8281 10.0606 14.0234 9.61815 14.0379 9.15182C14.0523 8.68548 13.8847 8.23183 13.5705 7.88687L6.93281 0.588624C6.61852 0.242584 6.1817 0.0326856 5.71513 0.00350594C5.24856 -0.0256737 4.78898 0.128165 4.43402 0.432348L0.535834 3.77521C0.225256 4.08689 0.0398828 4.50171 0.0148777 4.94099C-0.0120683 5.39005 -0.525838 16.0276 7.72323 24.2796C14.9196 31.4737 23.9339 32 26.4166 32C26.7794 32 27.0022 31.9892 27.0615 31.9856C27.5007 31.961 27.9153 31.7749 28.2255 31.4629L31.5668 27.5632C31.8713 27.2085 32.0254 26.7491 31.9966 26.2826C31.9677 25.816 31.7582 25.3791 31.4123 25.0646L24.1118 18.4256Z" fill="#003049"/>
</svg>
