<svg width="44" height="44" viewBox="0 0 44 44" fill="none" xmlns="http://www.w3.org/2000/svg">
<path d="M28.954 21.6C28.954 23.3902 28.2428 25.1071 26.977 26.373C25.7111 27.6388 23.9942 28.35 22.204 28.35C20.4138 28.35 18.6969 27.6388 17.431 26.373C16.1652 25.1071 15.454 23.3902 15.454 21.6C15.454 21.2153 15.4945 20.8395 15.5643 20.475H13.204V29.4683C13.204 30.0938 13.7103 30.6 14.3358 30.6H30.0745C30.3743 30.5994 30.6616 30.4799 30.8733 30.2677C31.0851 30.0555 31.204 29.768 31.204 29.4683V20.475H28.8438C28.9135 20.8395 28.954 21.2153 28.954 21.6ZM22.204 26.1C22.7951 26.0999 23.3804 25.9833 23.9264 25.7569C24.4725 25.5306 24.9686 25.1989 25.3865 24.7809C25.8043 24.3628 26.1357 23.8665 26.3618 23.3203C26.5879 22.7742 26.7042 22.1888 26.704 21.5977C26.7039 21.0067 26.5873 20.4214 26.3609 19.8753C26.1346 19.3293 25.8029 18.8332 25.3849 18.4153C24.9668 17.9974 24.4705 17.666 23.9243 17.4399C23.3782 17.2139 22.7929 17.0976 22.2018 17.0977C21.008 17.098 19.8632 17.5726 19.0193 18.4169C18.1754 19.2612 17.7015 20.4062 17.7018 21.6C17.7021 22.7938 18.1766 23.9385 19.0209 24.7824C19.8652 25.6264 21.0102 26.1003 22.204 26.1ZM27.604 16.875H30.3018C30.481 16.875 30.6529 16.804 30.7798 16.6774C30.9068 16.5509 30.9784 16.3792 30.979 16.2V13.5022C30.979 13.3226 30.9077 13.1504 30.7806 13.0234C30.6536 12.8964 30.4814 12.825 30.3018 12.825H27.604C27.4244 12.825 27.2521 12.8964 27.1251 13.0234C26.9981 13.1504 26.9268 13.3226 26.9268 13.5022V16.2C26.929 16.5712 27.2328 16.875 27.604 16.875ZM22.204 0C16.4753 0 10.9813 2.27571 6.9305 6.32649C2.87971 10.3773 0.604004 15.8713 0.604004 21.6C0.604004 27.3287 2.87971 32.8227 6.9305 36.8735C10.9813 40.9243 16.4753 43.2 22.204 43.2C25.0406 43.2 27.8493 42.6413 30.47 41.5558C33.0906 40.4703 35.4718 38.8793 37.4775 36.8735C39.4833 34.8678 41.0743 32.4866 42.1598 29.866C43.2453 27.2453 43.804 24.4366 43.804 21.6C43.804 18.7634 43.2453 15.9547 42.1598 13.334C41.0743 10.7134 39.4833 8.33224 37.4775 6.32649C35.4718 4.32075 33.0906 2.7297 30.47 1.6442C27.8493 0.558701 25.0406 0 22.204 0ZM33.454 30.3503C33.454 31.725 32.329 32.85 30.9543 32.85H13.4538C12.079 32.85 10.954 31.725 10.954 30.3503V12.8497C10.954 11.475 12.079 10.35 13.4538 10.35H30.9543C32.329 10.35 33.454 11.475 33.454 12.8497V30.3503Z" fill="#003049"/>
</svg>
