<svg width="41" height="43" viewBox="0 0 41 43" fill="none" xmlns="http://www.w3.org/2000/svg">
<path d="M20.2295 0C9.05694 0 0 9.42973 0 21.0622C0 32.6947 9.05694 42.1244 20.2295 42.1244C31.4022 42.1244 40.4591 32.6947 40.4591 21.0622C40.4591 9.42973 31.4022 0 20.2295 0ZM15.2775 29.7921H11.181V16.0665H15.2775V29.7921ZM13.204 14.3815C11.9101 14.3815 11.0736 13.4272 11.0736 12.2468C11.0736 11.0423 11.9354 10.1164 13.2567 10.1164C14.5779 10.1164 15.3871 11.0423 15.4124 12.2468C15.4124 13.4272 14.5779 14.3815 13.204 14.3815ZM30.239 29.7921H26.1425V22.1855C26.1425 20.415 25.5482 19.2127 24.0668 19.2127C22.9352 19.2127 22.263 20.0266 21.9659 20.8099C21.8563 21.0885 21.8289 21.4835 21.8289 21.8762V29.7899H17.7304V20.4435C17.7304 18.73 17.6777 17.2973 17.6229 16.0643H21.182L21.3696 17.9709H21.4517C21.9912 17.0757 23.3124 15.755 25.5229 15.755C28.2181 15.755 30.239 17.6352 30.239 21.6765V29.7921Z" fill="#003049"/>
</svg>
