<svg width="43" height="44" viewBox="0 0 43 44" fill="none" xmlns="http://www.w3.org/2000/svg">
<path fill-rule="evenodd" clip-rule="evenodd" d="M42.1449 21.9398C42.1449 34.0561 32.7097 43.8796 21.0724 43.8796C9.43519 43.8796 0 34.0561 0 21.9398C0 9.82355 9.43519 0 21.0724 0C32.7097 0 42.1449 9.82355 42.1449 21.9398ZM21.8275 16.1971C19.7782 17.0838 15.6814 18.9212 9.53879 21.7076C8.54136 22.1208 8.01807 22.5249 7.97065 22.9198C7.88987 23.5889 8.69414 23.8522 9.7864 24.2087C9.93566 24.2581 10.0902 24.3075 10.2482 24.3623C11.3247 24.7262 12.7717 25.1522 13.5232 25.1686C14.2063 25.1832 14.9685 24.8907 15.8096 24.291C21.5483 20.2559 24.5108 18.2173 24.6969 18.1735C24.8286 18.1424 25.0112 18.1022 25.1342 18.2173C25.2571 18.3307 25.2448 18.5464 25.2325 18.6049C25.1517 18.9578 22.0014 22.0093 20.3683 23.5889C19.859 24.0808 19.499 24.43 19.4253 24.5104C19.2602 24.6878 19.0916 24.8578 18.9301 25.0205C17.9291 26.0224 17.1811 26.7757 18.9722 28.0043C19.8327 28.5949 20.521 29.083 21.2077 29.5694C21.9575 30.1014 22.7056 30.6316 23.6749 31.2935C23.9207 31.4617 24.156 31.6354 24.3861 31.8054C25.2588 32.4544 26.0438 33.0359 27.0131 32.9444C27.5751 32.8896 28.1581 32.3393 28.4531 30.6956C29.1502 26.8086 30.5234 18.391 30.8413 14.9209C30.8606 14.6328 30.8488 14.3433 30.8062 14.0579C30.7806 13.8274 30.6728 13.6153 30.5041 13.4637C30.253 13.2498 29.8632 13.2041 29.6876 13.2078C28.8956 13.2224 27.6804 13.663 21.8275 16.1971Z" fill="#003049"/>
</svg>
