<svg width="43" height="44" viewBox="0 0 43 44" fill="none" xmlns="http://www.w3.org/2000/svg">
<g clip-path="url(#clip0_8_60)">
<path fill-rule="evenodd" clip-rule="evenodd" d="M21.5666 0.074585C9.92412 0.074585 0.494202 9.89264 0.494202 22.0144C0.494202 31.7227 6.52619 39.9227 14.9025 42.8298C15.9561 43.0217 16.3512 42.3635 16.3512 41.7876C16.3512 41.2666 16.3249 39.5388 16.3249 37.7013C11.0304 38.7161 9.66072 36.3575 9.23927 35.1234C9.0022 34.4926 7.97492 32.5455 7.07934 32.0244C6.34181 31.613 5.28818 30.5983 7.053 30.5709C8.71245 30.5435 9.89778 32.1615 10.2929 32.8197C12.1894 36.1381 15.2186 35.2057 16.4302 34.6298C16.6146 33.2037 17.1678 32.2438 17.7736 31.6953C13.085 31.1468 8.18564 29.2545 8.18564 20.8625C8.18564 18.4766 9.0022 16.502 10.3456 14.9662C10.1348 14.4177 9.39731 12.1689 10.5563 9.15218C10.5563 9.15218 12.3211 8.57626 16.3512 11.401C18.037 10.9074 19.8282 10.6605 21.6193 10.6605C23.4105 10.6605 25.2016 10.9074 26.8874 11.401C30.9175 8.54883 32.6824 9.15218 32.6824 9.15218C33.8413 12.1689 33.1038 14.4177 32.8931 14.9662C34.2365 16.502 35.053 18.4492 35.053 20.8625C35.053 29.2819 30.1273 31.1468 25.4387 31.6953C26.2026 32.3809 26.8611 33.6973 26.8611 35.7542C26.8611 38.6886 26.8348 41.0472 26.8348 41.7876C26.8348 42.3635 27.2299 43.0492 28.2835 42.8298C32.4667 41.3593 36.1017 38.5601 38.6769 34.8261C41.2521 31.0921 42.6378 26.6113 42.6391 22.0144C42.6391 9.89264 33.2092 0.074585 21.5666 0.074585Z" fill="#F1FAEE"/>
</g>
<defs>
<clipPath id="clip0_8_60">
<rect width="42.1449" height="43.8796" fill="white" transform="translate(0.494202 0.074585)"/>
</clipPath>
</defs>
</svg>
