<svg width="45" height="45" viewBox="0 0 45 45" fill="none" xmlns="http://www.w3.org/2000/svg">
<path d="M29.25 22.5C29.25 24.2902 28.5389 26.0071 27.273 27.273C26.0071 28.5389 24.2902 29.25 22.5 29.25C20.7098 29.25 18.9929 28.5389 17.7271 27.273C16.4612 26.0071 15.75 24.2902 15.75 22.5C15.75 22.1153 15.7905 21.7395 15.8603 21.375H13.5V30.3683C13.5 30.9938 14.0063 31.5 14.6318 31.5H30.3705C30.6703 31.4994 30.9576 31.3799 31.1693 31.1677C31.3811 30.9556 31.5 30.668 31.5 30.3683V21.375H29.1398C29.2095 21.7395 29.25 22.1153 29.25 22.5ZM22.5 27C23.0911 26.9999 23.6764 26.8833 24.2224 26.657C24.7685 26.4306 25.2646 26.099 25.6825 25.6809C26.1003 25.2628 26.4318 24.7665 26.6578 24.2204C26.8839 23.6742 27.0002 23.0889 27 22.4978C26.9999 21.9067 26.8833 21.3214 26.657 20.7754C26.4306 20.2293 26.099 19.7332 25.6809 19.3153C25.2628 18.8975 24.7665 18.566 24.2204 18.34C23.6742 18.1139 23.0889 17.9976 22.4978 17.9978C21.304 17.9981 20.1592 18.4726 19.3153 19.3169C18.4714 20.1613 17.9975 21.3063 17.9978 22.5C17.9981 23.6938 18.4726 24.8386 19.3169 25.6825C20.1613 26.5264 21.3063 27.0003 22.5 27ZM27.9 17.775H30.5978C30.777 17.775 30.9489 17.704 31.0759 17.5775C31.2028 17.4509 31.2744 17.2793 31.275 17.1V14.4023C31.275 14.2227 31.2037 14.0504 31.0767 13.9234C30.9497 13.7964 30.7774 13.725 30.5978 13.725H27.9C27.7204 13.725 27.5481 13.7964 27.4211 13.9234C27.2941 14.0504 27.2228 14.2227 27.2228 14.4023V17.1C27.225 17.4713 27.5288 17.775 27.9 17.775ZM22.5 0.900024C16.7713 0.900024 11.2773 3.17573 7.22652 7.22652C3.17573 11.2773 0.900024 16.7713 0.900024 22.5C0.900024 28.2287 3.17573 33.7227 7.22652 37.7735C11.2773 41.8243 16.7713 44.1 22.5 44.1C25.3366 44.1 28.1454 43.5413 30.766 42.4558C33.3866 41.3703 35.7678 39.7793 37.7735 37.7735C39.7793 35.7678 41.3703 33.3866 42.4558 30.766C43.5413 28.1454 44.1 25.3366 44.1 22.5C44.1 19.6635 43.5413 16.8547 42.4558 14.2341C41.3703 11.6134 39.7793 9.23226 37.7735 7.22652C35.7678 5.22077 33.3866 3.62973 30.766 2.54423C28.1454 1.45872 25.3366 0.900024 22.5 0.900024ZM33.75 31.2503C33.75 32.625 32.625 33.75 31.2503 33.75H13.7498C12.375 33.75 11.25 32.625 11.25 31.2503V13.7498C11.25 12.375 12.375 11.25 13.7498 11.25H31.2503C32.625 11.25 33.75 12.375 33.75 13.7498V31.2503Z" fill="#F1FAEE"/>
</svg>
