<svg width="43" height="44" viewBox="0 0 43 44" fill="none" xmlns="http://www.w3.org/2000/svg">
<g clip-path="url(#clip0_8_68)">
<path d="M21.0724 0.877563C9.89983 0.877563 0.842896 10.3073 0.842896 21.9398C0.842896 33.5723 9.89983 43.002 21.0724 43.002C32.2451 43.002 41.302 33.5723 41.302 21.9398C41.302 10.3073 32.2451 0.877563 21.0724 0.877563ZM16.1204 30.6696H12.0239V16.9441H16.1204V30.6696ZM14.0469 15.2591C12.753 15.2591 11.9165 14.3047 11.9165 13.1244C11.9165 11.9199 12.7783 10.994 14.0996 10.994C15.4208 10.994 16.23 11.9199 16.2553 13.1244C16.2553 14.3047 15.4208 15.2591 14.0469 15.2591ZM31.0819 30.6696H26.9854V23.0631C26.9854 21.2925 26.3911 20.0902 24.9097 20.0902C23.7781 20.0902 23.1059 20.9042 22.8088 21.6875C22.6992 21.9661 22.6718 22.361 22.6718 22.7537V30.6674H18.5732V21.3211C18.5732 19.6076 18.5206 18.1749 18.4658 16.9419H22.0249L22.2125 18.8485H22.2946C22.8341 17.9533 24.1553 16.6325 26.3658 16.6325C29.061 16.6325 31.0819 18.5128 31.0819 22.5541V30.6696Z" fill="#F1FAEE"/>
</g>
<defs>
<clipPath id="clip0_8_68">
<rect width="42.1449" height="43.8796" fill="white"/>
</clipPath>
</defs>
</svg>
