<svg width="28" height="28" viewBox="0 0 28 28" fill="none" xmlns="http://www.w3.org/2000/svg">
<path d="M28 24.5V3.5C28 1.56333 26.8971 0 25.5309 0H2.46914C1.10288 0 0 1.56333 0 3.5V24.5C0 26.4367 1.10288 28 2.46914 28H25.5309C26.8971 28 28 26.4367 28 24.5ZM25.8436 3.24333C26.3868 4.01333 26.0905 4.80667 25.7942 5.20333L19.1111 13.8833L25.5309 23.3567C25.7284 23.6833 25.8601 24.1967 25.6296 24.5467C25.4156 24.92 24.9218 24.8967 24.7078 24.6633L17.5144 15.96L13.9918 20.51L10.4856 15.96L3.29218 24.6633C3.07819 24.8967 2.58436 24.92 2.37037 24.5467C2.13992 24.1967 2.27161 23.6833 2.46914 23.3567L8.88889 13.8833L2.20576 5.20333C1.90946 4.80667 1.61317 4.01333 2.15638 3.24333C2.69959 2.47333 3.25926 2.84667 3.72016 3.40667L13.9918 15.1667L24.2798 3.40667C24.7407 2.84667 25.3004 2.47333 25.8436 3.24333Z" fill="#003049"/>
</svg>
