<svg width="184" height="153" viewBox="0 0 184 153" fill="none" xmlns="http://www.w3.org/2000/svg">
<path d="M99.3527 65.5233C103.265 65.5233 106.438 62.3632 106.438 58.4635C106.438 54.5648 103.265 51.4037 99.3527 51.4037C95.4375 51.4037 92.2643 54.5653 92.2643 58.4635C92.2638 62.3632 95.4375 65.5233 99.3527 65.5233Z" fill="#F1FAEE"/>
<path d="M83.389 66.8307C86.9115 66.8307 89.767 63.9857 89.767 60.4763C89.767 56.9669 86.9115 54.1219 83.389 54.1219C79.8666 54.1219 77.011 56.9669 77.011 60.4763C77.011 63.9857 79.8666 66.8307 83.389 66.8307Z" fill="#F1FAEE"/>
<path d="M68.9129 68.0076C72.0826 68.0076 74.6533 65.449 74.6533 62.2909C74.6533 59.1318 72.0826 56.5721 68.9129 56.5721C65.7423 56.5721 63.1726 59.1318 63.1726 62.2909C63.1726 65.4495 65.7418 68.0076 68.9129 68.0076Z" fill="#F1FAEE"/>
<path d="M68.9129 69.3136C65.2728 69.3136 62.6042 72.5084 62.6042 75.8086V78.0303C62.6042 78.3446 62.8613 78.6027 63.1776 78.6027H74.6467C74.964 78.6027 75.2211 78.3446 75.2211 78.0303V75.8086C75.2211 72.5084 72.5525 69.3136 68.9129 69.3136Z" fill="#F1FAEE"/>
<path d="M83.3889 68.2798C79.3447 68.2798 76.3788 71.83 76.3788 75.4977V77.9665C76.3788 78.3154 76.6645 78.6026 77.016 78.6026H89.7599C89.9288 78.6028 90.0909 78.5358 90.2106 78.4166C90.3302 78.2973 90.3976 78.1354 90.398 77.9665V75.4977C90.3985 71.8305 87.4332 68.2798 83.3889 68.2798Z" fill="#F1FAEE"/>
<path d="M99.3517 67.1334C94.8581 67.1334 91.5634 71.0778 91.5634 75.1537V77.8961C91.5634 78.2842 91.8807 78.6025 92.2714 78.6025H106.43C106.823 78.6025 107.14 78.2837 107.14 77.8961V75.1537C107.14 71.0783 103.845 67.1334 99.3517 67.1334Z" fill="#F1FAEE"/>
<path d="M69.0774 54.0774L16 1" stroke="#F1FAEE" stroke-opacity="0.5" stroke-width="1.43453"/>
<path d="M182.716 24.7206L116.135 59.3807" stroke="#F1FAEE" stroke-opacity="0.5" stroke-width="1.43453"/>
<path d="M137.16 145.89L86.9327 90.1072" stroke="#F1FAEE" stroke-opacity="0.5" stroke-width="1.43453"/>
<path d="M6.92799 152.551L52.6234 93" stroke="#F1FAEE" stroke-opacity="0.5" stroke-width="1.43453"/>
</svg>
