<svg width="43" height="45" viewBox="0 0 43 45" fill="none" xmlns="http://www.w3.org/2000/svg">
<path fill-rule="evenodd" clip-rule="evenodd" d="M42.5647 22.4576C42.5647 34.5739 33.1295 44.3974 21.4922 44.3974C9.85499 44.3974 0.4198 34.5739 0.4198 22.4576C0.4198 10.3414 9.85499 0.517822 21.4922 0.517822C33.1295 0.517822 42.5647 10.3414 42.5647 22.4576ZM22.2473 16.7149C20.198 17.6016 16.1012 19.4391 9.95859 22.2254C8.96116 22.6386 8.43787 23.0427 8.39045 23.4376C8.30967 24.1068 9.11394 24.37 10.2062 24.7266C10.3555 24.7759 10.51 24.8253 10.668 24.8801C11.7445 25.244 13.1915 25.67 13.943 25.6864C14.6261 25.7011 15.3883 25.4085 16.2294 24.8088C21.9681 20.7737 24.9306 18.7352 25.1167 18.6913C25.2484 18.6602 25.431 18.62 25.554 18.7352C25.6769 18.8485 25.6646 19.0643 25.6523 19.1228C25.5715 19.4756 22.4212 22.5271 20.7881 24.1068C20.2788 24.5986 19.9188 24.9478 19.8451 25.0282C19.68 25.2056 19.5114 25.3756 19.3499 25.5383C18.3489 26.5403 17.6009 27.2935 19.392 28.5221C20.2525 29.1127 20.9408 29.6009 21.6275 30.0872C22.3773 30.6192 23.1254 31.1494 24.0947 31.8113C24.3405 31.9795 24.5758 32.1532 24.8059 32.3232C25.6786 32.9723 26.4636 33.5537 27.4329 33.4623C27.9949 33.4074 28.5779 32.8571 28.8729 31.2134C29.57 27.3264 30.9432 18.9089 31.2611 15.4387C31.2804 15.1506 31.2686 14.8611 31.226 14.5757C31.2004 14.3453 31.0926 14.1332 30.9239 13.9815C30.6728 13.7676 30.283 13.7219 30.1074 13.7256C29.3154 13.7402 28.1002 14.1808 22.2473 16.7149Z" fill="#F1FAEE"/>
</svg>
