<svg width="85" height="85" viewBox="0 0 85 85" fill="none" xmlns="http://www.w3.org/2000/svg">
<path d="M59.1143 25.8606C60.6801 24.303 60.6801 21.7647 59.1143 20.2072L53.3537 14.4466L53.362 14.4549C51.8374 12.9303 49.2167 10.3096 45.5082 6.60936C43.7611 4.90345 40.9344 4.91994 39.2038 6.65057L6.75029 39.0793C6.33507 39.4917 6.00553 39.9822 5.78066 40.5225C5.55579 41.0627 5.44002 41.6422 5.44002 42.2274C5.44002 42.8126 5.55579 43.3921 5.78066 43.9323C6.00553 44.4726 6.33507 44.9631 6.75029 45.3755L39.1955 77.796C40.032 78.6311 41.1657 79.1001 42.3477 79.1001C43.5297 79.1001 44.6634 78.6311 45.5 77.796L59.106 64.1982C60.6718 62.6406 60.6718 60.1024 59.106 58.5448C58.354 57.7965 57.3362 57.3764 56.2752 57.3764C55.2143 57.3764 54.1965 57.7965 53.4444 58.5448L43.143 68.8626C42.7145 69.2912 42.0469 69.2912 41.6184 68.8626L15.7001 42.9691C15.2716 42.5406 15.2716 41.873 15.7001 41.4445L41.6102 15.551C41.6431 15.518 41.6843 15.4933 41.7173 15.4603C42.1458 15.1224 42.7392 15.1554 43.1348 15.551L53.4526 25.8606C55.0184 27.4264 57.5567 27.4264 59.1143 25.8606ZM33.7564 42.3922C33.7564 44.7134 34.6793 46.9395 36.3222 48.5809C37.9651 50.2222 40.1933 51.1443 42.5167 51.1443C44.8401 51.1443 47.0683 50.2222 48.7112 48.5809C50.354 46.9395 51.277 44.7134 51.277 42.3922C51.277 40.071 50.354 37.8449 48.7112 36.2036C47.0683 34.5623 44.8401 33.6402 42.5167 33.6402C40.1933 33.6402 37.9651 34.5623 36.3222 36.2036C34.6793 37.8449 33.7564 40.071 33.7564 42.3922ZM77.9452 39.2112L67.8169 29.1323C66.2511 27.5747 63.7128 27.5747 62.1553 29.1405C61.783 29.5111 61.4876 29.9516 61.286 30.4367C61.0845 30.9218 60.9807 31.4419 60.9807 31.9672C60.9807 32.4925 61.0845 33.0126 61.286 33.4977C61.4876 33.9828 61.783 34.4233 62.1553 34.7939L68.9954 41.6258C69.4239 42.0543 69.4239 42.7219 68.9954 43.1504L62.2541 49.8834C61.8819 50.254 61.5865 50.6945 61.3849 51.1796C61.1834 51.6647 61.0796 52.1848 61.0796 52.7101C61.0796 53.2354 61.1834 53.7555 61.3849 54.2406C61.5865 54.7257 61.8819 55.1662 62.2541 55.5368C63.0062 56.2851 64.024 56.7052 65.085 56.7052C66.1459 56.7052 67.1637 56.2851 67.9158 55.5368L77.9535 45.5074C78.3672 45.0939 78.6953 44.6029 78.919 44.0623C79.1426 43.5218 79.2573 42.9425 79.2565 42.3575C79.2557 41.7726 79.1395 41.1936 78.9145 40.6536C78.6895 40.1137 78.3601 39.6235 77.9452 39.2112Z" fill="#E07A5F"/>
</svg>
