<svg width="70" height="70" viewBox="0 0 70 70" fill="none" xmlns="http://www.w3.org/2000/svg">
<path d="M56.875 4.375H65.625V13.125H56.875V4.375Z" fill="#E07A5F"/>
<path d="M56.875 17.5H65.625V26.25H56.875V17.5Z" fill="#E07A5F"/>
<path d="M43.75 4.375H52.5V13.125H43.75V4.375Z" fill="#E07A5F"/>
<path d="M43.75 17.5H52.5V26.25H43.75V17.5Z" fill="#E07A5F"/>
<path d="M61.25 35V48.125H8.75V13.125H35V8.75H8.75C7.58968 8.75 6.47688 9.21094 5.65641 10.0314C4.83594 10.8519 4.375 11.9647 4.375 13.125V48.125C4.375 49.2853 4.83594 50.3981 5.65641 51.2186C6.47688 52.0391 7.58968 52.5 8.75 52.5H26.25V61.25H17.5V65.625H52.5V61.25H43.75V52.5H61.25C62.4103 52.5 63.5231 52.0391 64.3436 51.2186C65.1641 50.3981 65.625 49.2853 65.625 48.125V35H61.25ZM39.375 61.25H30.625V52.5H39.375V61.25Z" fill="#E07A5F"/>
</svg>
