<svg width="70" height="70" viewBox="0 0 70 70" fill="none" xmlns="http://www.w3.org/2000/svg">
<path d="M70 35C70 15.715 54.285 0 35 0C15.68 0 0 15.715 0 35C0 54.32 15.68 70 35 70C54.285 70 70 54.32 70 35ZM27.23 53.795L15.295 21.77C17.22 21.7 19.39 21.49 19.39 21.49C21.14 21.28 20.93 17.535 19.18 17.605C19.18 17.605 14.105 17.99 10.885 17.99C10.255 17.99 9.59 17.99 8.855 17.955C11.6908 13.6125 15.5694 10.0497 20.1365 7.59188C24.7036 5.13409 29.8136 3.85966 35 3.885C43.155 3.885 50.575 6.93 56.175 12.075C53.795 11.69 50.4 13.44 50.4 17.605C50.4 20.195 51.975 22.365 53.55 24.955C54.775 27.09 55.475 29.715 55.475 33.565C55.475 38.78 50.575 51.065 50.575 51.065L39.97 21.77C41.86 21.7 42.84 21.175 42.84 21.175C44.59 21 44.38 16.8 42.63 16.905C42.63 16.905 37.59 17.325 34.3 17.325C31.255 17.325 26.145 16.905 26.145 16.905C24.395 16.8 24.185 21.105 25.935 21.175L29.155 21.455L33.565 33.39L27.23 53.795ZM60.935 35C61.775 32.76 63.525 28.455 62.44 20.125C64.89 24.64 66.115 29.61 66.115 35C66.115 46.515 60.06 56.84 50.715 62.23C54.11 53.165 57.505 44.03 60.935 35ZM21.35 63.315C10.92 58.275 3.885 47.355 3.885 35C3.885 30.45 4.69 26.32 6.405 22.435C11.375 36.05 16.345 49.7 21.35 63.315ZM35.455 40.11L44.485 64.54C41.475 65.555 38.325 66.115 35 66.115C32.235 66.115 29.505 65.73 26.985 64.96C29.82 56.63 32.655 48.37 35.455 40.11Z" fill="#E07A5F"/>
</svg>
